<?xml version="1.0" encoding="UTF-8" standalone="no"?>
<!DOCTYPE svg PUBLIC "-//W3C//DTD SVG 1.1//EN" "http://www.w3.org/Graphics/SVG/1.1/DTD/svg11.dtd">
<svg version="1.1" xmlns="http://www.w3.org/2000/svg" xmlns:xlink="http://www.w3.org/1999/xlink" preserveAspectRatio="xMidYMid meet" viewBox="0 0 640 640" width="640" height="640"><defs><path d="M-334.6 46.12L-398.19 -13.98L-449.26 -62.24L-531.44 176.94L-456.9 504.67L-412.95 544.32L-248.6 149.19L-334.6 46.12Z" id="b2jF10RYJg"></path><path d="M-244.74 54.89L-359.41 -53.47L-441.58 185.71L-367.05 513.44L-323.1 553.09L-158.75 157.97L-244.74 54.89Z" id="ann2qRgkI"></path><path d="M-384.43 487.79L-384.43 417.19L-354.53 142.64L-445.2 -55.37" id="d2d9WlF4C"></path><path d="M-254.12 152.89L-293.96 148.89L-358.85 142.37L-531.73 180.22" id="h4bMp9fZRT"></path><path d="M-254.12 157.31L-406.57 220.34L-532.63 183.05" id="bhUfzeBgV"></path><path d="M-446.46 -56.62L-399.87 215.09L-410.77 544.32" id="b40Uoa1480"></path><path d="M-370.75 282.99L-453.92 511.64L-370.75 282.99Z" id="c3qxohzRS"></path><path d="M452.89 478.95L455 539.12L426.58 602.26L382.36 562.8L465.53 349.72L452.89 478.95Z" id="a4UdarJ7p"></path><path d="M-75.26 267.94L-107.32 351.97L-159.43 487.79L-231.57 165.34L-150.41 -68.2L-60.23 130.16L-75.26 267.94Z" id="b1ALiikoSM"></path><path d="M452.94 547.29L451.57 486.89L479.94 210.43L587.31 221.68L452.94 547.29Z" id="d8MaI21Iz"></path><path d="M480.02 210.57L390.84 12.21L505.07 119.7L587.23 220.34L480.02 210.57Z" id="d2iz664klu"></path><path d="M468.07 344.37L481.28 212.29L390.92 16.06L309.94 242.48L468.07 344.37Z" id="b61uzS4GOr"></path><path d="M-173.92 556.24L-131.84 595.33L-119.35 271.9L-167.91 0.25L-248.6 234.8L-124.82 271.9" id="dHNVNgxkp"></path><path d="M467.35 343.68L382.35 561.51L309.53 243.85L467.35 343.68Z" id="b2dM65e6Pz"></path><path d="M-314.2 222.06L-189.49 272.87L-199.97 595.33L-244.06 551.26L-318.74 231.83" id="cX1B0iEb6"></path><path d="M428.18 607.29L384.09 564.98L309.94 243.9L391.1 12.21L439.2 283.32L428.18 607.29Z" id="i16IRgxZp2"></path><path d="M426.85 607.29L438.66 283.13L587.23 220.83L426.85 607.29Z" id="b2UJwzaCc0"></path><path d="M393.35 14.27L506.53 119.26L587.23 219.42L438.62 282.99L427.8 219.42L393.35 14.27Z" id="b24XmgsiVx"></path></defs><g><g><g><use xlink:href="#b2jF10RYJg" opacity="1" fill="#000000" fill-opacity="0"></use><g><use xlink:href="#b2jF10RYJg" opacity="1" fill-opacity="0" stroke="#111a20" stroke-width="6" stroke-opacity="1"></use></g></g><g><use xlink:href="#ann2qRgkI" opacity="1" fill="#ffffff" fill-opacity="1"></use><g><use xlink:href="#ann2qRgkI" opacity="1" fill-opacity="0" stroke="#000000" stroke-width="1" stroke-opacity="0"></use></g></g><g><use xlink:href="#d2d9WlF4C" opacity="1" fill="#000000" fill-opacity="0"></use><g><use xlink:href="#d2d9WlF4C" opacity="1" fill-opacity="0" stroke="#030305" stroke-width="6" stroke-opacity="1"></use></g></g><g><use xlink:href="#h4bMp9fZRT" opacity="1" fill="#000000" fill-opacity="0"></use><g><use xlink:href="#h4bMp9fZRT" opacity="1" fill-opacity="0" stroke="#000000" stroke-width="6" stroke-opacity="1"></use></g></g><g><use xlink:href="#bhUfzeBgV" opacity="1" fill="#000000" fill-opacity="0"></use><g><use xlink:href="#bhUfzeBgV" opacity="1" fill-opacity="0" stroke="#020303" stroke-width="6" stroke-opacity="1"></use></g></g><g><use xlink:href="#b40Uoa1480" opacity="1" fill="#000000" fill-opacity="0"></use><g><use xlink:href="#b40Uoa1480" opacity="1" fill-opacity="0" stroke="#000000" stroke-width="6" stroke-opacity="1"></use></g></g><g><use xlink:href="#c3qxohzRS" opacity="1" fill="#000000" fill-opacity="0"></use><g><use xlink:href="#c3qxohzRS" opacity="1" fill-opacity="0" stroke="#030405" stroke-width="6" stroke-opacity="1"></use></g></g><g><use xlink:href="#a4UdarJ7p" opacity="1" fill="#1b5353" fill-opacity="0.73"></use><g><use xlink:href="#a4UdarJ7p" opacity="1" fill-opacity="0" stroke="#000000" stroke-width="2" stroke-opacity="0.96"></use></g></g><g><use xlink:href="#b1ALiikoSM" opacity="1" fill="#a9472e" fill-opacity="0.8"></use><g><use xlink:href="#b1ALiikoSM" opacity="1" fill-opacity="0" stroke="#000000" stroke-width="6" stroke-opacity="0.93"></use></g></g><g><use xlink:href="#d8MaI21Iz" opacity="1" fill="#d8c722" fill-opacity="0.77"></use><g><use xlink:href="#d8MaI21Iz" opacity="1" fill-opacity="0" stroke="#111a20" stroke-width="2" stroke-opacity="1"></use></g></g><g><use xlink:href="#d2iz664klu" opacity="1" fill="#c9c022" fill-opacity="0.73"></use><g><use xlink:href="#d2iz664klu" opacity="1" fill-opacity="0" stroke="#111a20" stroke-width="2" stroke-opacity="1"></use></g></g><g><use xlink:href="#b61uzS4GOr" opacity="1" fill="#c65656" fill-opacity="0.59"></use><g><use xlink:href="#b61uzS4GOr" opacity="1" fill-opacity="0" stroke="#10191e" stroke-width="2" stroke-opacity="1"></use></g></g><g><g><use xlink:href="#dHNVNgxkp" opacity="1" fill-opacity="0" stroke="#000000" stroke-width="3" stroke-opacity="0"></use></g></g><g><use xlink:href="#b2dM65e6Pz" opacity="1" fill="#ba2b2b" fill-opacity="0.51"></use><g><use xlink:href="#b2dM65e6Pz" opacity="1" fill-opacity="0" stroke="#10191e" stroke-width="2" stroke-opacity="1"></use></g></g><g><g><use xlink:href="#cX1B0iEb6" opacity="1" fill-opacity="0" stroke="#000000" stroke-width="3" stroke-opacity="0"></use></g></g><g><use xlink:href="#i16IRgxZp2" opacity="1" fill="#4f9927" fill-opacity="0.8"></use><g><use xlink:href="#i16IRgxZp2" opacity="1" fill-opacity="0" stroke="#000000" stroke-width="2" stroke-opacity="1"></use></g></g><g><use xlink:href="#b2UJwzaCc0" opacity="1" fill="#5a356a" fill-opacity="0.74"></use><g><use xlink:href="#b2UJwzaCc0" opacity="1" fill-opacity="0" stroke="#111a20" stroke-width="2" stroke-opacity="1"></use></g></g><g><use xlink:href="#b24XmgsiVx" opacity="1" fill="#612f78" fill-opacity="0.7"></use><g><use xlink:href="#b24XmgsiVx" opacity="1" fill-opacity="0" stroke="#111a20" stroke-width="2" stroke-opacity="1"></use></g></g></g></g></svg>