<?xml version="1.0" encoding="UTF-8" standalone="no"?>
<!DOCTYPE svg PUBLIC "-//W3C//DTD SVG 1.1//EN" "http://www.w3.org/Graphics/SVG/1.1/DTD/svg11.dtd">
<svg version="1.1" xmlns="http://www.w3.org/2000/svg" xmlns:xlink="http://www.w3.org/1999/xlink" preserveAspectRatio="xMidYMid meet" viewBox="0 0 640 640" width="640" height="640"><defs><path d="M428 229.69L342.18 124.56L227.74 14.04L145.73 257.99L220.12 592.25L263.98 632.69L428 229.69Z" id="dp5wMicGQ"></path><path d="" id="bVj3vybZl"></path><path d="M288.18 568.93L288.18 496.67L318.02 215.7L227.53 13.06" id="acydVNWz7"></path><path d="M424.28 226.12L384.51 222.03L319.75 215.36L147.22 254.09" id="b3nsfVvhAx"></path><path d="M425.47 228.64L273.32 293.15L147.51 254.98" id="a1g1RpB1re"></path><path d="M227.34 10.34L273.84 288.41L262.96 625.34" id="d3uy5cOlb"></path><path d="M220.09 589.34L303.09 355.34L220.09 589.34Z" id="g52Lzhe3me"></path><path d="M291.09 558.59L425.09 227.59L317.59 216.59" id="f4FTgYTlc"></path><path d="M426.09 227.84L290.09 559.84L287.09 496.84L317.09 214.84" id="i1TibIelT1"></path><path d="M300.09 370.84L288.09 501.84L290.09 562.84L263.09 626.84L221.09 586.84L300.09 370.84Z" id="bp3ttQcPf"></path><path d="M318.09 217.84L303.09 358.84L271.09 444.84L219.09 583.84L147.09 253.84L228.09 14.84L318.09 217.84Z" id="h7UpDYifh"></path><path d="M426.09 228.84L290.09 556.84L289.09 495.84L319.09 216.84L426.09 228.84Z" id="b9jDRzZiQN"></path><path d="M426.09 225.84L319.09 215.84L230.09 12.84L344.09 122.84L426.09 225.84Z" id="a1UhKhkKYQ"></path><path d="M265.88 225.78L231.5 15.83L344.46 123.27L425 225.78L276.68 290.83L265.88 225.78Z" id="c3xLcZRQH"></path><path d="M423 233.34L265.5 628.84L277.1 297.1L423 233.34Z" id="lfzCruDgz"></path><path d="M274.5 295.18L263.5 630L219.5 586.28L145.5 254.44L226.5 15L274.5 295.18Z" id="bG8Cv3LZj"></path><path d="M274.85 292.82L145.85 253.2L274.85 292.82Z" id="e3ZVroPKX"></path></defs><g><g><g><use xlink:href="#dp5wMicGQ" opacity="1" fill="#ffffff" fill-opacity="1"></use><g><use xlink:href="#dp5wMicGQ" opacity="1" fill-opacity="0" stroke="#111a20" stroke-width="6" stroke-opacity="1"></use></g></g><g><g><use xlink:href="#bVj3vybZl" opacity="1" fill-opacity="0" stroke="#050505" stroke-width="6" stroke-opacity="1"></use></g></g><g><g><use xlink:href="#acydVNWz7" opacity="1" fill-opacity="0" stroke="#030305" stroke-width="6" stroke-opacity="1"></use></g></g><g><g><use xlink:href="#b3nsfVvhAx" opacity="1" fill-opacity="0" stroke="#000000" stroke-width="6" stroke-opacity="1"></use></g></g><g><g><use xlink:href="#a1g1RpB1re" opacity="1" fill-opacity="0" stroke="#020303" stroke-width="6" stroke-opacity="1"></use></g></g><g><g><use xlink:href="#d3uy5cOlb" opacity="1" fill-opacity="0" stroke="#000000" stroke-width="6" stroke-opacity="1"></use></g></g><g><g><use xlink:href="#g52Lzhe3me" opacity="1" fill-opacity="0" stroke="#030405" stroke-width="6" stroke-opacity="1"></use></g></g><g><g><use xlink:href="#f4FTgYTlc" opacity="1" fill-opacity="0" stroke="#111a20" stroke-width="6" stroke-opacity="1"></use></g></g><g></g><g><use xlink:href="#bp3ttQcPf" opacity="1" fill="#1b5353" fill-opacity="0.73"></use></g><g><use xlink:href="#h7UpDYifh" opacity="1" fill="#a9472e" fill-opacity="0.8"></use></g><g><use xlink:href="#b9jDRzZiQN" opacity="1" fill="#373aa9" fill-opacity="0.64"></use><g><use xlink:href="#b9jDRzZiQN" opacity="1" fill-opacity="0" stroke="#111a20" stroke-width="6" stroke-opacity="1"></use></g></g><g><use xlink:href="#a1UhKhkKYQ" opacity="1" fill="#bcd30b" fill-opacity="0.74"></use><g><use xlink:href="#a1UhKhkKYQ" opacity="1" fill-opacity="0" stroke="#111a20" stroke-width="6" stroke-opacity="1"></use></g></g><g><use xlink:href="#c3xLcZRQH" opacity="1" fill="#85378b" fill-opacity="0.73"></use><g><use xlink:href="#c3xLcZRQH" opacity="1" fill-opacity="0" stroke="#111a20" stroke-width="6" stroke-opacity="1"></use></g></g><g><use xlink:href="#lfzCruDgz" opacity="1" fill="#672f7c" fill-opacity="0.66"></use><g><use xlink:href="#lfzCruDgz" opacity="1" fill-opacity="0" stroke="#111a20" stroke-width="6" stroke-opacity="1"></use></g></g><g><use xlink:href="#bG8Cv3LZj" opacity="1" fill="#7ade0a" fill-opacity="0.3"></use><g><use xlink:href="#bG8Cv3LZj" opacity="1" fill-opacity="0" stroke="#111a20" stroke-width="6" stroke-opacity="1"></use></g></g><g><g><use xlink:href="#e3ZVroPKX" opacity="1" fill-opacity="0" stroke="#111a20" stroke-width="7" stroke-opacity="1"></use></g></g></g></g></svg>